<?xml version="1.0" standalone="no"?><!DOCTYPE svg PUBLIC "-//W3C//DTD SVG 1.1//EN" "http://www.w3.org/Graphics/SVG/1.1/DTD/svg11.dtd"><svg t="1742289107269" class="icon" viewBox="0 0 1024 1024" version="1.1" xmlns="http://www.w3.org/2000/svg" p-id="7785" xmlns:xlink="http://www.w3.org/1999/xlink" width="200" height="200"><path d="M512 16C238.72 16 16 238.72 16 512S238.72 1008 512 1008s496-222.72 496-496S785.28 16 512 16z m192 544H560V704c0 26.24-21.76 48-48 48s-48-21.76-48-48V560H320c-26.24 0-48-21.76-48-48s21.76-48 48-48h144V320c0-26.24 21.76-48 48-48s48 21.76 48 48v144H704c26.24 0 48 21.76 48 48s-21.76 48-48 48z" p-id="7786" data-spm-anchor-id="a313x.search_index.0.i30.26c13a81SfDSae" class="selected" fill="#ffffff"></path></svg>